<svg xmlns="http://www.w3.org/2000/svg" version="1.1" xmlns:xlink="http://www.w3.org/1999/xlink" xmlns:svgjs="http://svgjs.com/svgjs" width="1440" height="560" preserveAspectRatio="none" viewBox="0 0 1440 560">
    <g mask="url(&quot;#SvgjsMask1003&quot;)" fill="none">
        <rect width="1440" height="560" x="0" y="0" fill="rgba(15, 40, 67, 1)"></rect>
        <path d="M582.79 550.29 a19.43 19.43 0 1 0 38.86 0 a19.43 19.43 0 1 0 -38.86 0z" stroke="#d3b714"></path>
        <path d="M1400.24 238.86L1420.66 238.86L1420.66 259.28L1400.24 259.28z" stroke="#037b0b"></path>
        <path d="M1030.63 88.83 a13.53 13.53 0 1 0 27.06 0 a13.53 13.53 0 1 0 -27.06 0z" fill="#037b0b"></path>
        <path d="M371.77 346.31L396.08 346.31L396.08 363.58L371.77 363.58z" stroke="#037b0b"></path>
        <path d="M801.8 150.13L836.99 150.13L836.99 178.75L801.8 178.75z" fill="#e73635"></path>
        <path d="M500.55 223.64a33.66 33.66 0 1 0 12.97 66.06z" stroke="#d3b714"></path>
        <path d="M1311.51 333.84a47.1 47.1 0 1 0 40.73 84.94z" stroke="#d3b714"></path>
        <path d="M849.03 444.57L851.29 444.57L851.29 469.89L849.03 469.89z" fill="#037b0b"></path>
        <path d="M763.18 319.09L813.28 319.09L813.28 341.84L763.18 341.84z" stroke="#d3b714"></path>
        <path d="M1432.09 406.88a5.21 5.21 0 1 0 4.33 9.48z" fill="#d3b714"></path>
        <path d="M1221.24 503.53L1270.63 503.53L1270.63 552.92L1221.24 552.92z" stroke="#e73635"></path>
        <path d="M119.15 168.02a39.37 39.37 0 1 0-50.47 60.43z" fill="#e73635"></path>
        <path d="M359.77 51.38 a15.68 15.68 0 1 0 31.36 0 a15.68 15.68 0 1 0 -31.36 0z" fill="#d3b714"></path>
        <path d="M389.77 481.87L412.56 481.87L412.56 504.66L389.77 504.66z" fill="#d3b714"></path>
        <path d="M514.69 311.93L525.16 311.93L525.16 322.4L514.69 322.4z" stroke="#e73635"></path>
        <path d="M658.74 507.88 a8.27 8.27 0 1 0 16.54 0 a8.27 8.27 0 1 0 -16.54 0z" stroke="#d3b714"></path>
        <path d="M29.86 373.59L69.51 373.59L69.51 417.2L29.86 417.2z" stroke="#037b0b"></path>
        <path d="M885.57 246.55L893.18 246.55L893.18 254.16L885.57 254.16z" fill="#037b0b"></path>
        <path d="M1398.93 480.25a44.69 44.69 0 1 0 50.55 73.71z" stroke="#d3b714"></path>
        <path d="M1073.39 234.46L1102.04 234.46L1102.04 270.82L1073.39 270.82z" fill="#e73635"></path>
        <path d="M487.17 119.09 a49.78 49.78 0 1 0 99.56 0 a49.78 49.78 0 1 0 -99.56 0z" stroke="#037b0b"></path>
        <path d="M162.47 112.1L208.76 112.1L208.76 133.34L162.47 133.34z" stroke="#d3b714"></path>
        <path d="M94.89 85.7L104.88 85.7L104.88 131.87L94.89 131.87z" fill="#037b0b"></path>
        <path d="M866.34 361.07L874.1 361.07L874.1 368.83L866.34 368.83z" fill="#037b0b"></path>
        <path d="M1163.46 514.86 a39.88 39.88 0 1 0 79.76 0 a39.88 39.88 0 1 0 -79.76 0z" fill="#e73635"></path>
        <path d="M513.25 216.61a16.51 16.51 0 1 0-5.03-32.64z" stroke="#d3b714"></path>
        <path d="M712.67 187.44a45.47 45.47 0 1 0-90.94-0.47z" fill="#e73635"></path>
        <path d="M1429.35 199.99L1438.93 199.99L1438.93 244.47L1429.35 244.47z" stroke="#e73635"></path>
        <path d="M142.62 213.38 a45.77 45.77 0 1 0 91.54 0 a45.77 45.77 0 1 0 -91.54 0z" stroke="#037b0b"></path>
        <path d="M901.63 117.85L937.46 117.85L937.46 153.68L901.63 153.68z" fill="#d3b714"></path>
        <path d="M226.03 42.38L250.84 42.38L250.84 51.96L226.03 51.96z" stroke="#d3b714"></path>
        <path d="M321.35 427.32 a28.81 28.81 0 1 0 57.62 0 a28.81 28.81 0 1 0 -57.62 0z" stroke="#e73635"></path>
        <path d="M912.02 11.66L920.1 11.66L920.1 60.66L912.02 60.66z" stroke="#d3b714"></path>
    </g>
    <defs>
        <mask id="SvgjsMask1003">
            <rect width="1440" height="560" fill="#ffffff"></rect>
        </mask>
    </defs>
</svg>